<svg width="12" height="9" viewBox="0 0 12 9" fill="none" xmlns="http://www.w3.org/2000/svg">
<path d="M6 0.923462C3.70727 0.923462 1.62811 2.17783 0.0938938 4.21527C-0.0312979 4.38219 -0.0312979 4.61539 0.0938938 4.78231C1.62811 6.8222 3.70727 8.07658 6 8.07658C8.29273 8.07658 10.3719 6.8222 11.9061 4.78477C12.0313 4.61785 12.0313 4.38465 11.9061 4.21772C10.3719 2.17783 8.29273 0.923462 6 0.923462ZM6.16447 7.01858C4.64253 7.11432 3.3857 5.85995 3.48144 4.33555C3.55999 3.07872 4.57871 2.06001 5.83553 1.98146C7.35747 1.88572 8.6143 3.14009 8.51856 4.66449C8.43756 5.91886 7.41884 6.93758 6.16447 7.01858ZM6.08837 5.85504C5.26849 5.90659 4.59098 5.23153 4.64498 4.41165C4.68671 3.73414 5.23658 3.18673 5.91408 3.14255C6.73397 3.091 7.41148 3.76605 7.35747 4.58594C7.31329 5.2659 6.76342 5.81331 6.08837 5.85504Z" fill="#928F8F"/>
</svg>
